<mxfile host="Electron" agent="Mozilla/5.0 (Windows NT 10.0; Win64; x64) AppleWebKit/537.36 (KHTML, like Gecko) draw.io/27.0.9 Chrome/134.0.6998.205 Electron/35.4.0 Safari/537.36" version="27.0.9" pages="2">
  <diagram name="Page-1" id="JEW0xFvWE3Cc1CcMTXA9">
    <mxGraphModel dx="2850" dy="1193" grid="0" gridSize="10" guides="1" tooltips="1" connect="1" arrows="1" fold="1" page="0" pageScale="1" pageWidth="850" pageHeight="1100" math="0" shadow="0">
      <root>
        <mxCell id="0" />
        <mxCell id="1" parent="0" />
        <mxCell id="beOkk8aYmiJZQXRsRhm2-61" value="The Goal Solution" style="rounded=0;whiteSpace=wrap;html=1;fillColor=light-dark(#f5f9ff, #1d293b);strokeColor=#6c8ebf;align=left;verticalAlign=top;" parent="1" vertex="1">
          <mxGeometry x="-447" y="1122" width="1491" height="407" as="geometry" />
        </mxCell>
        <mxCell id="beOkk8aYmiJZQXRsRhm2-26" value="" style="edgeStyle=orthogonalEdgeStyle;rounded=0;orthogonalLoop=1;jettySize=auto;html=1;entryX=0;entryY=0.5;entryDx=0;entryDy=0;" parent="1" source="beOkk8aYmiJZQXRsRhm2-1" target="beOkk8aYmiJZQXRsRhm2-25" edge="1">
          <mxGeometry relative="1" as="geometry" />
        </mxCell>
        <mxCell id="beOkk8aYmiJZQXRsRhm2-1" value="Enverus" style="rounded=0;whiteSpace=wrap;html=1;" parent="1" vertex="1">
          <mxGeometry x="-363" y="697" width="120" height="60" as="geometry" />
        </mxCell>
        <mxCell id="beOkk8aYmiJZQXRsRhm2-22" value="" style="edgeStyle=orthogonalEdgeStyle;rounded=0;orthogonalLoop=1;jettySize=auto;html=1;" parent="1" source="beOkk8aYmiJZQXRsRhm2-2" target="beOkk8aYmiJZQXRsRhm2-21" edge="1">
          <mxGeometry relative="1" as="geometry" />
        </mxCell>
        <mxCell id="beOkk8aYmiJZQXRsRhm2-2" value="IHS" style="rounded=0;whiteSpace=wrap;html=1;" parent="1" vertex="1">
          <mxGeometry x="-363" y="374" width="120" height="60" as="geometry" />
        </mxCell>
        <mxCell id="beOkk8aYmiJZQXRsRhm2-4" value="Internal" style="rounded=0;whiteSpace=wrap;html=1;" parent="1" vertex="1">
          <mxGeometry x="-499" y="571" width="120" height="60" as="geometry" />
        </mxCell>
        <mxCell id="beOkk8aYmiJZQXRsRhm2-8" value="" style="edgeStyle=orthogonalEdgeStyle;rounded=0;orthogonalLoop=1;jettySize=auto;html=1;" parent="1" source="beOkk8aYmiJZQXRsRhm2-6" target="beOkk8aYmiJZQXRsRhm2-7" edge="1">
          <mxGeometry relative="1" as="geometry" />
        </mxCell>
        <mxCell id="beOkk8aYmiJZQXRsRhm2-6" value="Third Party Dashboard&lt;div&gt;(No filters export)&lt;/div&gt;" style="shape=process;whiteSpace=wrap;html=1;backgroundOutline=1;" parent="1" vertex="1">
          <mxGeometry x="61" y="476" width="120" height="60" as="geometry" />
        </mxCell>
        <mxCell id="beOkk8aYmiJZQXRsRhm2-10" value="" style="edgeStyle=orthogonalEdgeStyle;rounded=0;orthogonalLoop=1;jettySize=auto;html=1;" parent="1" source="beOkk8aYmiJZQXRsRhm2-7" target="beOkk8aYmiJZQXRsRhm2-9" edge="1">
          <mxGeometry relative="1" as="geometry" />
        </mxCell>
        <mxCell id="beOkk8aYmiJZQXRsRhm2-7" value="File (Excel)" style="whiteSpace=wrap;html=1;" parent="1" vertex="1">
          <mxGeometry x="261" y="476" width="120" height="60" as="geometry" />
        </mxCell>
        <mxCell id="beOkk8aYmiJZQXRsRhm2-15" value="Check if already exists in db&lt;div&gt;API Number is the key&lt;/div&gt;&lt;div&gt;Get count of new (--&amp;gt; 4)&lt;/div&gt;" style="edgeStyle=orthogonalEdgeStyle;rounded=0;orthogonalLoop=1;jettySize=auto;html=1;exitX=0.5;exitY=1;exitDx=0;exitDy=0;" parent="1" source="beOkk8aYmiJZQXRsRhm2-9" target="beOkk8aYmiJZQXRsRhm2-11" edge="1">
          <mxGeometry relative="1" as="geometry" />
        </mxCell>
        <mxCell id="beOkk8aYmiJZQXRsRhm2-19" value="" style="edgeStyle=orthogonalEdgeStyle;rounded=0;orthogonalLoop=1;jettySize=auto;html=1;" parent="1" source="beOkk8aYmiJZQXRsRhm2-9" target="beOkk8aYmiJZQXRsRhm2-18" edge="1">
          <mxGeometry relative="1" as="geometry" />
        </mxCell>
        <mxCell id="beOkk8aYmiJZQXRsRhm2-9" value="Sort / Filter&lt;div&gt;Completed Wells&lt;/div&gt;&lt;div&gt;&lt;br&gt;&lt;/div&gt;" style="whiteSpace=wrap;html=1;" parent="1" vertex="1">
          <mxGeometry x="461" y="476" width="120" height="60" as="geometry" />
        </mxCell>
        <mxCell id="beOkk8aYmiJZQXRsRhm2-11" value="MS Access&lt;div&gt;After creating the new&lt;/div&gt;&lt;div&gt;&lt;br&gt;&lt;/div&gt;&lt;div&gt;paste in API Numbers for each new&lt;/div&gt;&lt;div&gt;Other Well Data is updated from Sheet manually&amp;nbsp;&lt;/div&gt;&lt;div&gt;(Including DQ / Business Data Transformations)&lt;/div&gt;" style="shape=process;whiteSpace=wrap;html=1;backgroundOutline=1;" parent="1" vertex="1">
          <mxGeometry x="300" y="702" width="442" height="97" as="geometry" />
        </mxCell>
        <mxCell id="beOkk8aYmiJZQXRsRhm2-37" value="Not all of the data in this process but some of the data does go back to systems (partial loop)" style="edgeStyle=orthogonalEdgeStyle;rounded=0;orthogonalLoop=1;jettySize=auto;html=1;exitX=1;exitY=0.5;exitDx=0;exitDy=0;exitPerimeter=0;entryX=0;entryY=0.5;entryDx=0;entryDy=0;" parent="1" source="beOkk8aYmiJZQXRsRhm2-12" target="beOkk8aYmiJZQXRsRhm2-4" edge="1">
          <mxGeometry relative="1" as="geometry">
            <Array as="points">
              <mxPoint x="1222" y="551" />
              <mxPoint x="1222" y="1064" />
              <mxPoint x="-562" y="1064" />
              <mxPoint x="-562" y="601" />
            </Array>
          </mxGeometry>
        </mxCell>
        <mxCell id="beOkk8aYmiJZQXRsRhm2-12" value="Third Party Database (AppBasinOSO)" style="shape=cylinder3;whiteSpace=wrap;html=1;boundedLbl=1;backgroundOutline=1;size=15;" parent="1" vertex="1">
          <mxGeometry x="935" y="477" width="171" height="148" as="geometry" />
        </mxCell>
        <mxCell id="beOkk8aYmiJZQXRsRhm2-13" value="create new record&lt;div&gt;update other well data&lt;/div&gt;" style="edgeStyle=orthogonalEdgeStyle;rounded=0;orthogonalLoop=1;jettySize=auto;html=1;exitX=1;exitY=0.5;exitDx=0;exitDy=0;entryX=0.5;entryY=1;entryDx=0;entryDy=0;entryPerimeter=0;" parent="1" source="beOkk8aYmiJZQXRsRhm2-11" target="beOkk8aYmiJZQXRsRhm2-12" edge="1">
          <mxGeometry relative="1" as="geometry" />
        </mxCell>
        <mxCell id="beOkk8aYmiJZQXRsRhm2-20" style="edgeStyle=orthogonalEdgeStyle;rounded=0;orthogonalLoop=1;jettySize=auto;html=1;exitX=1;exitY=0.5;exitDx=0;exitDy=0;" parent="1" source="beOkk8aYmiJZQXRsRhm2-18" target="beOkk8aYmiJZQXRsRhm2-12" edge="1">
          <mxGeometry relative="1" as="geometry" />
        </mxCell>
        <mxCell id="beOkk8aYmiJZQXRsRhm2-18" value="Manually duplicat # of properties based on new count" style="shape=process;whiteSpace=wrap;html=1;backgroundOutline=1;" parent="1" vertex="1">
          <mxGeometry x="661" y="476" width="175" height="60" as="geometry" />
        </mxCell>
        <mxCell id="beOkk8aYmiJZQXRsRhm2-24" value="" style="edgeStyle=orthogonalEdgeStyle;rounded=0;orthogonalLoop=1;jettySize=auto;html=1;" parent="1" source="beOkk8aYmiJZQXRsRhm2-21" target="beOkk8aYmiJZQXRsRhm2-23" edge="1">
          <mxGeometry relative="1" as="geometry" />
        </mxCell>
        <mxCell id="beOkk8aYmiJZQXRsRhm2-21" value="Generate DP2 file" style="shape=process;whiteSpace=wrap;html=1;backgroundOutline=1;rounded=0;" parent="1" vertex="1">
          <mxGeometry x="-163" y="374" width="120" height="60" as="geometry" />
        </mxCell>
        <mxCell id="beOkk8aYmiJZQXRsRhm2-32" style="edgeStyle=orthogonalEdgeStyle;rounded=0;orthogonalLoop=1;jettySize=auto;html=1;exitX=1;exitY=0.5;exitDx=0;exitDy=0;" parent="1" source="beOkk8aYmiJZQXRsRhm2-23" target="beOkk8aYmiJZQXRsRhm2-12" edge="1">
          <mxGeometry relative="1" as="geometry" />
        </mxCell>
        <mxCell id="beOkk8aYmiJZQXRsRhm2-23" value="&lt;div&gt;(This is an manual intiated import)&lt;/div&gt;Update the wells adeed by MS Access&lt;div&gt;&lt;br&gt;&lt;/div&gt;&lt;div&gt;Well Header Info&amp;nbsp;&lt;/div&gt;&lt;div&gt;Production&lt;/div&gt;&lt;div&gt;&lt;br&gt;&lt;/div&gt;&lt;div&gt;Requires the API Numbers to match (is dependent on Third party forward)&lt;/div&gt;" style="shape=process;whiteSpace=wrap;html=1;backgroundOutline=1;rounded=0;" parent="1" vertex="1">
          <mxGeometry x="37" y="315" width="596" height="119" as="geometry" />
        </mxCell>
        <mxCell id="beOkk8aYmiJZQXRsRhm2-28" value="" style="edgeStyle=orthogonalEdgeStyle;rounded=0;orthogonalLoop=1;jettySize=auto;html=1;" parent="1" source="beOkk8aYmiJZQXRsRhm2-25" target="beOkk8aYmiJZQXRsRhm2-27" edge="1">
          <mxGeometry relative="1" as="geometry" />
        </mxCell>
        <mxCell id="beOkk8aYmiJZQXRsRhm2-25" value="Export Wells and Production&amp;nbsp;" style="shape=process;whiteSpace=wrap;html=1;backgroundOutline=1;rounded=0;" parent="1" vertex="1">
          <mxGeometry x="-138" y="878" width="120" height="60" as="geometry" />
        </mxCell>
        <mxCell id="beOkk8aYmiJZQXRsRhm2-30" style="edgeStyle=orthogonalEdgeStyle;rounded=0;orthogonalLoop=1;jettySize=auto;html=1;exitX=1;exitY=0.5;exitDx=0;exitDy=0;" parent="1" source="beOkk8aYmiJZQXRsRhm2-27" target="beOkk8aYmiJZQXRsRhm2-29" edge="1">
          <mxGeometry relative="1" as="geometry" />
        </mxCell>
        <mxCell id="beOkk8aYmiJZQXRsRhm2-27" value="File (Excel)" style="whiteSpace=wrap;html=1;rounded=0;" parent="1" vertex="1">
          <mxGeometry x="66" y="878" width="120" height="60" as="geometry" />
        </mxCell>
        <mxCell id="beOkk8aYmiJZQXRsRhm2-29" value="MS Access (linked to File and Thrid Party Database)&lt;div&gt;&lt;br&gt;&lt;/div&gt;&lt;div&gt;Manually updated using API Number as the key&lt;/div&gt;&lt;div&gt;(requires specially translating 10/12/14 digit APIs)&lt;/div&gt;&lt;div&gt;&lt;br&gt;&lt;/div&gt;&lt;div&gt;Filling in blanks that IHS didn&#39;t have&lt;/div&gt;" style="shape=process;whiteSpace=wrap;html=1;backgroundOutline=1;" parent="1" vertex="1">
          <mxGeometry x="326" y="841" width="415" height="134" as="geometry" />
        </mxCell>
        <mxCell id="beOkk8aYmiJZQXRsRhm2-31" style="edgeStyle=orthogonalEdgeStyle;rounded=0;orthogonalLoop=1;jettySize=auto;html=1;exitX=1;exitY=0.5;exitDx=0;exitDy=0;entryX=0.855;entryY=1;entryDx=0;entryDy=-4.35;entryPerimeter=0;" parent="1" source="beOkk8aYmiJZQXRsRhm2-29" target="beOkk8aYmiJZQXRsRhm2-12" edge="1">
          <mxGeometry relative="1" as="geometry" />
        </mxCell>
        <mxCell id="beOkk8aYmiJZQXRsRhm2-34" style="edgeStyle=orthogonalEdgeStyle;rounded=0;orthogonalLoop=1;jettySize=auto;html=1;exitX=1;exitY=0.5;exitDx=0;exitDy=0;exitPerimeter=0;entryX=0;entryY=0.5;entryDx=0;entryDy=0;" parent="1" source="beOkk8aYmiJZQXRsRhm2-33" target="beOkk8aYmiJZQXRsRhm2-6" edge="1">
          <mxGeometry relative="1" as="geometry" />
        </mxCell>
        <mxCell id="beOkk8aYmiJZQXRsRhm2-33" value="Source?" style="shape=cylinder3;whiteSpace=wrap;html=1;boundedLbl=1;backgroundOutline=1;size=15;" parent="1" vertex="1">
          <mxGeometry x="-103" y="536" width="60" height="80" as="geometry" />
        </mxCell>
        <mxCell id="beOkk8aYmiJZQXRsRhm2-35" value="?" style="edgeStyle=orthogonalEdgeStyle;rounded=0;orthogonalLoop=1;jettySize=auto;html=1;exitX=0.5;exitY=1;exitDx=0;exitDy=0;entryX=0;entryY=0;entryDx=0;entryDy=52.5;entryPerimeter=0;" parent="1" source="beOkk8aYmiJZQXRsRhm2-2" target="beOkk8aYmiJZQXRsRhm2-33" edge="1">
          <mxGeometry relative="1" as="geometry" />
        </mxCell>
        <mxCell id="beOkk8aYmiJZQXRsRhm2-36" value="?" style="edgeStyle=orthogonalEdgeStyle;rounded=0;orthogonalLoop=1;jettySize=auto;html=1;exitX=1;exitY=0.5;exitDx=0;exitDy=0;entryX=0;entryY=1;entryDx=0;entryDy=-15;entryPerimeter=0;" parent="1" source="beOkk8aYmiJZQXRsRhm2-4" target="beOkk8aYmiJZQXRsRhm2-33" edge="1">
          <mxGeometry relative="1" as="geometry" />
        </mxCell>
        <mxCell id="beOkk8aYmiJZQXRsRhm2-38" value="1" style="ellipse;whiteSpace=wrap;html=1;aspect=fixed;rotation=0;gradientColor=#223548;strokeColor=none;gradientDirection=east;fillColor=#5b738b;rounded=0;pointerEvents=0;fontFamily=Helvetica;fontSize=16;fontColor=#FFFFFF;spacingTop=4;spacingBottom=4;spacingLeft=4;spacingRight=4;points=[];fontStyle=1" parent="1" vertex="1">
          <mxGeometry x="50" y="461" width="30" height="30" as="geometry" />
        </mxCell>
        <mxCell id="beOkk8aYmiJZQXRsRhm2-39" value="2" style="ellipse;whiteSpace=wrap;html=1;aspect=fixed;rotation=0;gradientColor=#223548;strokeColor=none;gradientDirection=east;fillColor=#5b738b;rounded=0;pointerEvents=0;fontFamily=Helvetica;fontSize=16;fontColor=#FFFFFF;spacingTop=4;spacingBottom=4;spacingLeft=4;spacingRight=4;points=[];fontStyle=1" parent="1" vertex="1">
          <mxGeometry x="447" y="463" width="30" height="30" as="geometry" />
        </mxCell>
        <mxCell id="beOkk8aYmiJZQXRsRhm2-41" value="3" style="ellipse;whiteSpace=wrap;html=1;aspect=fixed;rotation=0;gradientColor=#223548;strokeColor=none;gradientDirection=east;fillColor=#5b738b;rounded=0;pointerEvents=0;fontFamily=Helvetica;fontSize=16;fontColor=#FFFFFF;spacingTop=4;spacingBottom=4;spacingLeft=4;spacingRight=4;points=[];fontStyle=1" parent="1" vertex="1">
          <mxGeometry x="417" y="586" width="30" height="30" as="geometry" />
        </mxCell>
        <mxCell id="beOkk8aYmiJZQXRsRhm2-49" value="10" style="ellipse;whiteSpace=wrap;html=1;aspect=fixed;strokeWidth=2;fontFamily=Tahoma;spacingBottom=4;spacingRight=2;strokeColor=#d3d3d3;" parent="1" vertex="1">
          <mxGeometry x="1047" y="878" width="31" height="31" as="geometry" />
        </mxCell>
        <mxCell id="beOkk8aYmiJZQXRsRhm2-57" style="edgeStyle=orthogonalEdgeStyle;rounded=0;orthogonalLoop=1;jettySize=auto;html=1;exitX=1;exitY=0.5;exitDx=0;exitDy=0;exitPerimeter=0;" parent="1" source="beOkk8aYmiJZQXRsRhm2-50" target="beOkk8aYmiJZQXRsRhm2-56" edge="1">
          <mxGeometry relative="1" as="geometry" />
        </mxCell>
        <mxCell id="beOkk8aYmiJZQXRsRhm2-50" value="IHS" style="shape=cylinder3;whiteSpace=wrap;html=1;boundedLbl=1;backgroundOutline=1;size=15;" parent="1" vertex="1">
          <mxGeometry x="-334.5" y="1166" width="60" height="80" as="geometry" />
        </mxCell>
        <mxCell id="beOkk8aYmiJZQXRsRhm2-58" style="edgeStyle=orthogonalEdgeStyle;rounded=0;orthogonalLoop=1;jettySize=auto;html=1;exitX=1;exitY=0.5;exitDx=0;exitDy=0;exitPerimeter=0;" parent="1" source="beOkk8aYmiJZQXRsRhm2-51" target="beOkk8aYmiJZQXRsRhm2-56" edge="1">
          <mxGeometry relative="1" as="geometry" />
        </mxCell>
        <mxCell id="beOkk8aYmiJZQXRsRhm2-51" value="Enverus" style="shape=cylinder3;whiteSpace=wrap;html=1;boundedLbl=1;backgroundOutline=1;size=15;" parent="1" vertex="1">
          <mxGeometry x="-334.5" y="1296" width="60" height="80" as="geometry" />
        </mxCell>
        <mxCell id="beOkk8aYmiJZQXRsRhm2-52" value="" style="shape=cylinder3;whiteSpace=wrap;html=1;boundedLbl=1;backgroundOutline=1;size=15;" parent="1" vertex="1">
          <mxGeometry x="-334.5" y="1410" width="60" height="80" as="geometry" />
        </mxCell>
        <mxCell id="beOkk8aYmiJZQXRsRhm2-53" value="" style="shape=cylinder3;whiteSpace=wrap;html=1;boundedLbl=1;backgroundOutline=1;size=15;" parent="1" vertex="1">
          <mxGeometry x="-324.5" y="1420" width="60" height="80" as="geometry" />
        </mxCell>
        <mxCell id="beOkk8aYmiJZQXRsRhm2-59" style="edgeStyle=orthogonalEdgeStyle;rounded=0;orthogonalLoop=1;jettySize=auto;html=1;exitX=1;exitY=0.5;exitDx=0;exitDy=0;exitPerimeter=0;entryX=0;entryY=0.5;entryDx=0;entryDy=0;" parent="1" source="beOkk8aYmiJZQXRsRhm2-54" target="beOkk8aYmiJZQXRsRhm2-56" edge="1">
          <mxGeometry relative="1" as="geometry">
            <Array as="points">
              <mxPoint x="-107.5" y="1470" />
              <mxPoint x="-107.5" y="1272" />
            </Array>
          </mxGeometry>
        </mxCell>
        <mxCell id="beOkk8aYmiJZQXRsRhm2-54" value="Internal" style="shape=cylinder3;whiteSpace=wrap;html=1;boundedLbl=1;backgroundOutline=1;size=15;" parent="1" vertex="1">
          <mxGeometry x="-314.5" y="1430" width="60" height="80" as="geometry" />
        </mxCell>
        <mxCell id="beOkk8aYmiJZQXRsRhm2-55" value="Thrid Party Datbase (AppBasinOSO" style="shape=cylinder3;whiteSpace=wrap;html=1;boundedLbl=1;backgroundOutline=1;size=15;" parent="1" vertex="1">
          <mxGeometry x="803.5" y="1226" width="151" height="92" as="geometry" />
        </mxCell>
        <mxCell id="beOkk8aYmiJZQXRsRhm2-56" value="New Process&lt;div&gt;Py / SSIS / .Net or T-SQL&lt;/div&gt;" style="shape=process;whiteSpace=wrap;html=1;backgroundOutline=1;" parent="1" vertex="1">
          <mxGeometry x="60.5" y="1242" width="120" height="60" as="geometry" />
        </mxCell>
        <mxCell id="beOkk8aYmiJZQXRsRhm2-60" value="AC_PROPERTY&lt;div&gt;AC_PRODUCT&lt;/div&gt;" style="edgeStyle=orthogonalEdgeStyle;rounded=0;orthogonalLoop=1;jettySize=auto;html=1;exitX=1;exitY=0.5;exitDx=0;exitDy=0;entryX=0;entryY=0.5;entryDx=0;entryDy=0;entryPerimeter=0;" parent="1" source="beOkk8aYmiJZQXRsRhm2-56" target="beOkk8aYmiJZQXRsRhm2-55" edge="1">
          <mxGeometry relative="1" as="geometry" />
        </mxCell>
        <mxCell id="beOkk8aYmiJZQXRsRhm2-62" value="" style="rounded=1;whiteSpace=wrap;html=1;fillColor=none;" parent="1" vertex="1">
          <mxGeometry x="-364.5" y="1154" width="131.5" height="237" as="geometry" />
        </mxCell>
        <mxCell id="LXfYfvuk549SRdSJ4nj9-1" value="4" style="ellipse;whiteSpace=wrap;html=1;aspect=fixed;rotation=0;gradientColor=#223548;strokeColor=none;gradientDirection=east;fillColor=#5b738b;rounded=0;pointerEvents=0;fontFamily=Helvetica;fontSize=16;fontColor=#FFFFFF;spacingTop=4;spacingBottom=4;spacingLeft=4;spacingRight=4;points=[];fontStyle=1" parent="1" vertex="1">
          <mxGeometry x="641" y="461" width="30" height="30" as="geometry" />
        </mxCell>
        <mxCell id="LXfYfvuk549SRdSJ4nj9-3" value="5" style="ellipse;whiteSpace=wrap;html=1;aspect=fixed;rotation=0;gradientColor=#223548;strokeColor=none;gradientDirection=east;fillColor=#5b738b;rounded=0;pointerEvents=0;fontFamily=Helvetica;fontSize=16;fontColor=#FFFFFF;spacingTop=4;spacingBottom=4;spacingLeft=4;spacingRight=4;points=[];fontStyle=1" parent="1" vertex="1">
          <mxGeometry x="748" y="714" width="30" height="30" as="geometry" />
        </mxCell>
        <mxCell id="LXfYfvuk549SRdSJ4nj9-5" value="6" style="ellipse;whiteSpace=wrap;html=1;aspect=fixed;rotation=0;gradientColor=#223548;strokeColor=none;gradientDirection=east;fillColor=#5b738b;rounded=0;pointerEvents=0;fontFamily=Helvetica;fontSize=16;fontColor=#FFFFFF;spacingTop=4;spacingBottom=4;spacingLeft=4;spacingRight=4;points=[];fontStyle=1" parent="1" vertex="1">
          <mxGeometry x="-180" y="356" width="30" height="30" as="geometry" />
        </mxCell>
        <mxCell id="LXfYfvuk549SRdSJ4nj9-6" value="7" style="ellipse;whiteSpace=wrap;html=1;aspect=fixed;rotation=0;gradientColor=#223548;strokeColor=none;gradientDirection=east;fillColor=#5b738b;rounded=0;pointerEvents=0;fontFamily=Helvetica;fontSize=16;fontColor=#FFFFFF;spacingTop=4;spacingBottom=4;spacingLeft=4;spacingRight=4;points=[];fontStyle=1" parent="1" vertex="1">
          <mxGeometry x="1014" y="354" width="30" height="30" as="geometry" />
        </mxCell>
        <mxCell id="LXfYfvuk549SRdSJ4nj9-7" value="8" style="ellipse;whiteSpace=wrap;html=1;aspect=fixed;strokeWidth=2;fontFamily=Tahoma;spacingBottom=4;spacingRight=2;strokeColor=#d3d3d3;" parent="1" vertex="1">
          <mxGeometry x="-154" y="846" width="28" height="28" as="geometry" />
        </mxCell>
        <mxCell id="LXfYfvuk549SRdSJ4nj9-8" value="9" style="ellipse;whiteSpace=wrap;html=1;aspect=fixed;strokeWidth=2;fontFamily=Tahoma;spacingBottom=4;spacingRight=2;strokeColor=#d3d3d3;" parent="1" vertex="1">
          <mxGeometry x="309" y="831" width="30" height="30" as="geometry" />
        </mxCell>
      </root>
    </mxGraphModel>
  </diagram>
  <diagram id="4n6yOK_j2--tZaxcrxi8" name="RTA">
    <mxGraphModel dx="2866" dy="1609" grid="0" gridSize="10" guides="1" tooltips="1" connect="1" arrows="1" fold="1" page="0" pageScale="1" pageWidth="850" pageHeight="1100" math="0" shadow="0">
      <root>
        <mxCell id="0" />
        <mxCell id="1" parent="0" />
        <mxCell id="N37e9NpYK6u_q6HXosJB-5" value="Manual Upload (on-demand)&amp;nbsp;&lt;div&gt;Properties and Production&lt;/div&gt;" style="edgeStyle=orthogonalEdgeStyle;rounded=0;orthogonalLoop=1;jettySize=auto;html=1;exitX=1;exitY=0.5;exitDx=0;exitDy=0;exitPerimeter=0;entryX=0;entryY=0.5;entryDx=0;entryDy=0;entryPerimeter=0;" edge="1" parent="1" source="N37e9NpYK6u_q6HXosJB-1" target="N37e9NpYK6u_q6HXosJB-15">
          <mxGeometry relative="1" as="geometry" />
        </mxCell>
        <mxCell id="N37e9NpYK6u_q6HXosJB-1" value="Aries_ANTERO&lt;div&gt;AC_DAILY&lt;br&gt;&lt;div&gt;AC_PROPERTY&lt;/div&gt;&lt;/div&gt;" style="shape=cylinder3;whiteSpace=wrap;html=1;boundedLbl=1;backgroundOutline=1;size=15;" vertex="1" parent="1">
          <mxGeometry x="-641" y="-213" width="134" height="103" as="geometry" />
        </mxCell>
        <mxCell id="N37e9NpYK6u_q6HXosJB-8" style="edgeStyle=orthogonalEdgeStyle;rounded=0;orthogonalLoop=1;jettySize=auto;html=1;exitX=1;exitY=0.5;exitDx=0;exitDy=0;exitPerimeter=0;" edge="1" parent="1" source="N37e9NpYK6u_q6HXosJB-3" target="N37e9NpYK6u_q6HXosJB-7">
          <mxGeometry relative="1" as="geometry" />
        </mxCell>
        <mxCell id="N37e9NpYK6u_q6HXosJB-3" value="wv100&lt;div&gt;wv100UnitsCalcUs&lt;/div&gt;" style="shape=cylinder3;whiteSpace=wrap;html=1;boundedLbl=1;backgroundOutline=1;size=15;" vertex="1" parent="1">
          <mxGeometry x="-641" y="-36" width="134" height="103" as="geometry" />
        </mxCell>
        <mxCell id="N37e9NpYK6u_q6HXosJB-12" style="edgeStyle=orthogonalEdgeStyle;rounded=0;orthogonalLoop=1;jettySize=auto;html=1;exitX=1;exitY=0.5;exitDx=0;exitDy=0;exitPerimeter=0;" edge="1" parent="1" source="N37e9NpYK6u_q6HXosJB-4" target="N37e9NpYK6u_q6HXosJB-11">
          <mxGeometry relative="1" as="geometry" />
        </mxCell>
        <mxCell id="N37e9NpYK6u_q6HXosJB-4" value="GIS DB&amp;nbsp;&lt;div&gt;(source?&lt;/div&gt;&lt;div&gt;Petra Data?)&lt;/div&gt;" style="shape=cylinder3;whiteSpace=wrap;html=1;boundedLbl=1;backgroundOutline=1;size=15;" vertex="1" parent="1">
          <mxGeometry x="-641" y="150" width="134" height="103" as="geometry" />
        </mxCell>
        <mxCell id="N37e9NpYK6u_q6HXosJB-9" style="edgeStyle=orthogonalEdgeStyle;rounded=0;orthogonalLoop=1;jettySize=auto;html=1;exitX=0.5;exitY=0;exitDx=0;exitDy=0;entryX=0.5;entryY=1;entryDx=0;entryDy=0;entryPerimeter=0;" edge="1" parent="1" source="N37e9NpYK6u_q6HXosJB-7" target="N37e9NpYK6u_q6HXosJB-15">
          <mxGeometry relative="1" as="geometry">
            <mxPoint x="-131.5" y="-134" as="targetPoint" />
          </mxGeometry>
        </mxCell>
        <mxCell id="N37e9NpYK6u_q6HXosJB-7" value="&lt;div&gt;Manual Data Entry (Existing Wells Only)&lt;/div&gt;WellBore Design Data&lt;div&gt;Perforation&lt;/div&gt;&lt;div&gt;Casing and Tubing Sizes&lt;/div&gt;&lt;div&gt;Invert the negative Bools&lt;/div&gt;" style="shape=process;whiteSpace=wrap;html=1;backgroundOutline=1;" vertex="1" parent="1">
          <mxGeometry x="-286" y="-28.5" width="309" height="88" as="geometry" />
        </mxCell>
        <mxCell id="N37e9NpYK6u_q6HXosJB-10" value="Excel&lt;div&gt;(data massage tool)&lt;/div&gt;" style="shape=process;whiteSpace=wrap;html=1;backgroundOutline=1;" vertex="1" parent="1">
          <mxGeometry x="-1" y="18" width="120" height="60" as="geometry" />
        </mxCell>
        <mxCell id="N37e9NpYK6u_q6HXosJB-13" value="Manual Intiated&lt;div&gt;Upload&lt;/div&gt;" style="edgeStyle=orthogonalEdgeStyle;rounded=0;orthogonalLoop=1;jettySize=auto;html=1;exitX=1;exitY=0.5;exitDx=0;exitDy=0;entryX=1;entryY=0.5;entryDx=0;entryDy=0;entryPerimeter=0;" edge="1" parent="1" source="N37e9NpYK6u_q6HXosJB-11" target="N37e9NpYK6u_q6HXosJB-15">
          <mxGeometry relative="1" as="geometry">
            <Array as="points">
              <mxPoint x="240" y="212" />
              <mxPoint x="240" y="-175" />
              <mxPoint x="-23" y="-175" />
            </Array>
          </mxGeometry>
        </mxCell>
        <mxCell id="N37e9NpYK6u_q6HXosJB-11" value="&lt;div&gt;Manaul Process&lt;/div&gt;Excel File Export&lt;div&gt;Poraracity , Net Pay&lt;/div&gt;" style="shape=process;whiteSpace=wrap;html=1;backgroundOutline=1;" vertex="1" parent="1">
          <mxGeometry x="-406" y="172" width="209" height="79" as="geometry" />
        </mxCell>
        <mxCell id="N37e9NpYK6u_q6HXosJB-15" value="Harmony&lt;div&gt;(PROPNUM)&lt;/div&gt;" style="shape=cylinder3;whiteSpace=wrap;html=1;boundedLbl=1;backgroundOutline=1;size=15;" vertex="1" parent="1">
          <mxGeometry x="-240" y="-209" width="217" height="80" as="geometry" />
        </mxCell>
      </root>
    </mxGraphModel>
  </diagram>
</mxfile>
